<?xml version="1.0" encoding="UTF-8" standalone="no"?>
<!-- Created with Inkscape (http://www.inkscape.org/) -->

<svg
   width="32"
   height="32"
   viewBox="0 0 8.4666667 8.4666666"
   version="1.1"
   id="svg5"
   inkscape:version="1.4 (86a8ad7, 2024-10-11)"
   sodipodi:docname="favicon-inkscape.svg"
   inkscape:export-filename="src\assets\icon-512.png"
   inkscape:export-xdpi="1536"
   inkscape:export-ydpi="1536"
   inkscape:export-batch-path="src\assets"
   inkscape:export-batch-name="icon"
   xmlns:inkscape="http://www.inkscape.org/namespaces/inkscape"
   xmlns:sodipodi="http://sodipodi.sourceforge.net/DTD/sodipodi-0.dtd"
   xmlns="http://www.w3.org/2000/svg"
   xmlns:svg="http://www.w3.org/2000/svg">
  <sodipodi:namedview
     id="namedview7"
     pagecolor="#ffffff"
     bordercolor="#666666"
     borderopacity="1.0"
     inkscape:pageshadow="2"
     inkscape:pageopacity="0.0"
     inkscape:pagecheckerboard="true"
     inkscape:document-units="mm"
     showgrid="false"
     fit-margin-top="0"
     fit-margin-left="0"
     fit-margin-right="0"
     fit-margin-bottom="0"
     inkscape:zoom="16.589788"
     inkscape:cx="-0.42194632"
     inkscape:cy="11.965192"
     inkscape:window-width="2560"
     inkscape:window-height="1009"
     inkscape:window-x="1432"
     inkscape:window-y="302"
     inkscape:window-maximized="1"
     inkscape:current-layer="layer1"
     inkscape:showpageshadow="2"
     inkscape:deskcolor="#d1d1d1"
     inkscape:export-bgcolor="#ffffffff"
     inkscape:clip-to-page="false" />
  <defs
     id="defs2" />
  <g
     inkscape:label="Слой 1"
     inkscape:groupmode="layer"
     id="layer1"
     transform="matrix(1.0583333,0,0,1.0583333,-94.989421,-128.48825)">
    <rect
       style="fill:#ffffff;stroke-width:0.1"
       id="rect1"
       width="8"
       height="8"
       x="89.753784"
       y="121.40623"
       transform="translate(1.1220473e-6)" />
    <g
       id="g1"
       transform="matrix(0.85289131,0,0,0.85289131,14.777036,18.808569)">
      <path
         style="fill:#e8d102;fill-opacity:1;stroke:#000000;stroke-width:0.1;stroke-linecap:butt;stroke-linejoin:miter;stroke-miterlimit:4;stroke-dasharray:none;stroke-opacity:1"
         d="m 91.684765,128.2459 c 0,0 -0.33832,-0.22555 -0.541311,-0.65409 0,0 -0.02254,-0.63153 -1.01496,-0.9473 0,0 -0.631531,-0.60897 -0.135329,-1.35327 0,0 0.180437,-0.63153 0,-1.26307 l -0.180438,-0.63153 c 0,0 0,-1.62394 2.187805,-1.89459 2.187802,-0.27066 2.95466,0.7443 2.95466,0.7443 0,0 0.518758,0.81197 0.383432,2.07503 0,0 -0.879634,0.65409 0.04511,1.10518 0,0 0.112773,0.76686 -0.428541,1.12774 -0.541311,0.36087 -0.766858,1.26306 -0.766858,1.26306 0,0 -1.330727,1.21795 -2.50357,0.42854 z"
         id="path3708"
         sodipodi:nodetypes="ccccccscccscc" />
      <path
         id="path885"
         style="fill:#000000;fill-opacity:1;stroke:none;stroke-width:0.264583px;stroke-linecap:butt;stroke-linejoin:miter;stroke-opacity:1"
         d="m 93.015492,126.48663 c 0,0 -0.315767,0.24811 -0.834525,-0.0226 0,0 -0.04511,-0.36082 0.405985,-0.58637 m 0,0 c 0,0 0.315767,0.27065 0.42854,0.60897" />
      <path
         style="fill:#000000;fill-opacity:1;stroke:none;stroke-width:0.264583px;stroke-linecap:butt;stroke-linejoin:miter;stroke-opacity:1"
         d="m 90.466814,125.1108 c 0,0 0.270655,-0.87963 0.92474,-0.81197 0.654087,0.0677 0.811969,0.90219 0.811969,0.90219 0,0 -0.293211,0.90218 -0.879634,0.78941 -0.58642,-0.11277 -0.857075,-0.87963 -0.857075,-0.87963 z"
         id="path887" />
      <path
         style="fill:#000000;fill-opacity:1;stroke:none;stroke-width:0.264583px;stroke-linecap:butt;stroke-linejoin:miter;stroke-opacity:1"
         d="m 92.970381,125.02058 c 0,0 0.157884,-0.74431 0.789416,-0.6992 0.631528,0.0451 0.857075,0.83453 0.857075,0.83453 0,0 -0.225547,0.54131 -0.541311,0.72175 -0.315764,0.18043 -0.902187,-0.22555 -1.10518,-0.85708 z"
         id="path889" />
    </g>
  </g>
</svg>
